<svg width="1667" height="1123" viewBox="0 0 1667 1123" fill="none" xmlns="http://www.w3.org/2000/svg">
<g clip-path="url(#clip0_7_990)">
<mask id="mask0_7_990" style="mask-type:luminance" maskUnits="userSpaceOnUse" x="0" y="0" width="1667" height="1123">
<path d="M0 -3.34537e-05H1666.2V1122.52H0V-3.34537e-05Z" fill="white"/>
</mask>
<g mask="url(#mask0_7_990)">
<path d="M326.386 518.63C316.963 525.158 304.275 520.624 311.585 535.936C312.726 538.328 322.418 552.275 323.937 552.974C328.533 555.087 335.983 550.827 338.717 547.212C343.258 541.204 332.351 525.818 329.046 519.9L326.386 518.63ZM240.155 367.099C248.277 370.7 256.921 373.74 264.149 379.107C269.322 382.947 276.599 394.048 280.245 395.4C284.201 396.867 289.418 392.756 294.893 393.812C296.978 394.215 315.446 400.679 317.893 401.778C333.134 408.619 342.807 437.8 350.651 451.31C355.963 460.456 374.531 476.64 372.159 487.988C370.599 495.45 363.841 491.991 368.785 505.192C370.981 511.058 375.325 514.33 378.029 519.45C383.495 529.806 387.865 540.958 394.451 550.784V558.132C392.181 567.794 385.237 571.447 376.818 575.766H359.183C346.463 561.515 340.198 573.082 329.095 574.33C302.838 577.282 303.977 553.238 291.549 538.332C286.309 532.048 274.15 526.598 271.175 521.968C269.067 518.691 268.938 512.815 266.871 508.639C261.022 496.82 239.367 469.9 238.593 458.922C237.597 444.802 252.205 441.122 254.491 432.132C255.759 427.146 254.111 421.4 254.926 416.402C256.29 408.035 264.49 407.13 252.677 396.458C243.869 388.5 233.679 385.938 221.878 387.762C215.442 388.756 205.146 396.468 198.531 392.186C193.713 389.064 191.409 368.24 200.479 367.099H240.155Z" fill="white"/>
<path d="M187.254 447.92V437.634C191.456 431.567 189.967 423.67 191.468 416.118C191.936 413.764 190.298 410.503 193.846 411.196C198.723 415.947 196.767 423.028 198.187 428.904C199.856 435.814 206.042 444.516 201.123 450.776C196.514 456.64 190.294 453.426 187.254 447.92Z" fill="white"/>
<path d="M1405.78 611.8C1396.35 618.328 1383.67 613.795 1390.97 629.107C1392.12 631.499 1401.81 645.446 1403.33 646.144C1407.92 648.258 1415.37 643.998 1418.11 640.383C1422.65 634.375 1411.74 618.988 1408.44 613.071L1405.78 611.8ZM1319.55 460.27C1327.67 463.871 1336.31 466.911 1343.54 472.278C1348.71 476.118 1355.99 487.219 1359.63 488.571C1363.59 490.038 1368.81 485.927 1374.28 486.983C1376.37 487.386 1394.84 493.85 1397.28 494.948C1412.52 501.79 1422.2 530.971 1430.04 544.48C1435.35 553.627 1453.92 569.811 1451.55 581.159C1449.99 588.62 1443.23 585.162 1448.17 598.363C1450.37 604.228 1454.71 607.5 1457.42 612.62C1462.89 622.976 1467.25 634.128 1473.84 643.955V651.303C1471.57 660.964 1464.63 664.618 1456.21 668.936H1438.57C1425.85 654.686 1419.59 666.252 1408.49 667.5C1382.23 670.452 1383.37 646.408 1370.94 631.503C1365.7 625.219 1353.54 619.768 1350.57 615.139C1348.46 611.862 1348.33 605.986 1346.26 601.81C1340.41 589.991 1318.76 563.071 1317.98 552.092C1316.99 537.972 1331.59 534.292 1333.88 525.303C1335.15 520.316 1333.5 514.571 1334.32 509.572C1335.68 501.206 1343.88 500.3 1332.07 489.628C1323.26 481.671 1313.07 479.108 1301.27 480.932C1294.83 481.927 1284.54 489.639 1277.92 485.356C1273.1 482.235 1270.8 461.411 1279.87 460.27H1319.55Z" fill="white"/>
<path d="M1266.64 541.091V530.804C1270.85 524.738 1269.36 516.84 1270.86 509.288C1271.33 506.935 1269.69 503.674 1273.23 504.367C1278.11 509.118 1276.16 516.199 1277.58 522.075C1279.25 528.984 1285.43 537.687 1280.51 543.947C1275.9 549.811 1269.68 546.596 1266.64 541.091Z" fill="white"/>
<path d="M167.874 644.43V647.79C167.874 648.725 168.201 649.514 168.853 650.154C169.505 650.796 170.298 651.117 171.234 651.117C172.169 651.117 172.957 650.796 173.598 650.154C174.239 649.514 174.561 648.725 174.561 647.79V641.102C174.561 640.168 174.239 639.38 173.598 638.738C172.957 638.097 172.169 637.776 171.234 637.776C168.233 637.754 165.733 636.634 163.731 634.416C162.035 632.502 161.187 630.273 161.187 627.729V621.074C161.187 618.313 162.171 615.948 164.139 613.98C166.107 612.012 168.471 611.028 171.234 611.028C173.995 611.028 176.355 612.012 178.313 613.98C180.269 615.948 181.249 618.313 181.249 621.074V624.402H180.629H174.561V621.074C174.561 620.14 174.239 619.346 173.598 618.693C172.957 618.041 172.169 617.714 171.234 617.714C170.298 617.714 169.505 618.041 168.853 618.693C168.201 619.346 167.874 620.14 167.874 621.074V627.729C167.874 628.664 168.201 629.458 168.853 630.11C169.505 630.762 170.298 631.089 171.234 631.089C174.213 631.089 176.703 632.198 178.703 634.416C180.401 636.329 181.249 638.558 181.249 641.102V647.79C181.249 650.552 180.269 652.91 178.313 654.869C176.355 656.825 173.995 657.804 171.234 657.804C168.471 657.804 166.107 656.825 164.139 654.869C162.171 652.91 161.187 650.552 161.187 647.79V644.43H167.874Z" fill="white"/>
<path d="M196.547 624.402L193.187 641.168H199.939L196.612 624.402H196.547ZM193.252 611.028H199.873L209.888 657.804H203.267L201.276 647.79L191.849 647.724L189.859 657.804H183.237L193.252 611.028Z" fill="white"/>
<path d="M219.837 617.65V651.182H224.045C224.762 651.182 225.366 650.938 225.855 650.449C226.345 649.959 226.589 649.355 226.589 648.638V620.194C226.589 619.477 226.345 618.873 225.855 618.383C225.366 617.894 224.762 617.65 224.045 617.65H219.837ZM213.215 611.029H226.589C228.415 611.029 229.975 611.675 231.27 612.969C232.563 614.262 233.211 615.845 233.211 617.715V651.182C233.211 653.01 232.563 654.57 231.27 655.863C229.975 657.158 228.415 657.805 226.589 657.805H213.215V611.029Z" fill="white"/>
<path d="M254.511 613.98C256.469 612.012 258.827 611.028 261.59 611.028C264.351 611.028 266.711 612.012 268.669 613.98C270.625 615.948 271.603 618.313 271.603 621.075H264.95C264.95 620.14 264.623 619.345 263.971 618.693C263.318 618.041 262.525 617.715 261.59 617.715C260.654 617.715 259.866 618.041 259.225 618.693C258.583 619.345 258.262 620.14 258.262 621.075V647.789C258.262 648.725 258.583 649.513 259.225 650.155C259.866 650.796 260.654 651.117 261.59 651.117C262.525 651.117 263.318 650.796 263.971 650.155C264.623 649.513 264.95 648.725 264.95 647.789V637.776H261.59V631.089H271.603V647.789C271.603 650.552 270.625 652.911 268.669 654.869C266.711 656.825 264.351 657.804 261.59 657.804C258.827 657.804 256.469 656.825 254.511 654.869C252.554 652.911 251.575 650.552 251.575 647.789V621.075C251.575 618.313 252.554 615.948 254.511 613.98Z" fill="white"/>
<path d="M287.849 624.402L284.489 641.168H291.241L287.914 624.402H287.849ZM284.554 611.028H291.175L301.19 657.804H294.569L292.578 647.79L283.151 647.724L281.161 657.804H274.539L284.554 611.028Z" fill="white"/>
<path d="M309.866 644.43V647.79C309.866 648.725 310.193 649.514 310.845 650.154C311.497 650.796 312.29 651.117 313.226 651.117C314.161 651.117 314.95 650.796 315.59 650.154C316.231 649.514 316.553 648.725 316.553 647.79V641.102C316.553 640.168 316.231 639.38 315.59 638.738C314.95 638.097 314.161 637.776 313.226 637.776C310.225 637.754 307.725 636.634 305.723 634.416C304.027 632.502 303.179 630.273 303.179 627.729V621.074C303.179 618.313 304.163 615.948 306.131 613.98C308.099 612.012 310.463 611.028 313.226 611.028C315.987 611.028 318.347 612.012 320.305 613.98C322.261 615.948 323.241 618.313 323.241 621.074V624.402H322.621H316.553V621.074C316.553 620.14 316.231 619.346 315.59 618.693C314.95 618.041 314.161 617.714 313.226 617.714C312.29 617.714 311.497 618.041 310.845 618.693C310.193 619.346 309.866 620.14 309.866 621.074V627.729C309.866 628.664 310.193 629.458 310.845 630.11C311.497 630.762 312.29 631.089 313.226 631.089C316.205 631.089 318.695 632.198 320.695 634.416C322.393 636.329 323.241 638.558 323.241 641.102V647.79C323.241 650.552 322.261 652.91 320.305 654.869C318.347 656.825 315.987 657.804 313.226 657.804C310.463 657.804 308.099 656.825 306.131 654.869C304.163 652.91 303.179 650.552 303.179 647.79V644.43H309.866Z" fill="white"/>
<path d="M346.041 644.43V647.79C346.041 648.725 346.368 649.514 347.02 650.154C347.672 650.796 348.465 651.117 349.401 651.117C350.336 651.117 351.125 650.796 351.765 650.154C352.408 649.514 352.728 648.725 352.728 647.79V641.102C352.728 640.168 352.408 639.38 351.765 638.738C351.125 638.097 350.336 637.776 349.401 637.776C346.4 637.754 343.9 636.634 341.899 634.416C340.203 632.502 339.355 630.273 339.355 627.729V621.074C339.355 618.313 340.339 615.948 342.307 613.98C344.275 612.012 346.639 611.028 349.401 611.028C352.163 611.028 354.523 612.012 356.48 613.98C358.436 615.948 359.416 618.313 359.416 621.074V624.402H358.796H352.728V621.074C352.728 620.14 352.408 619.346 351.765 618.693C351.125 618.041 350.336 617.714 349.401 617.714C348.465 617.714 347.672 618.041 347.02 618.693C346.368 619.346 346.041 620.14 346.041 621.074V627.729C346.041 628.664 346.368 629.458 347.02 630.11C347.672 630.762 348.465 631.089 349.401 631.089C352.38 631.089 354.871 632.198 356.872 634.416C358.568 636.329 359.416 638.558 359.416 641.102V647.79C359.416 650.552 358.436 652.91 356.48 654.869C354.523 656.825 352.163 657.804 349.401 657.804C346.639 657.804 344.275 656.825 342.307 654.869C340.339 652.91 339.355 650.552 339.355 647.79V644.43H346.041Z" fill="white"/>
<path d="M361.08 611.028H381.108V617.715H374.421V657.804H367.768V617.715H361.08V611.028Z" fill="white"/>
<path d="M390.666 624.402L387.304 641.168H394.058L390.731 624.402H390.666ZM387.37 611.028H393.992L404.007 657.804H397.384L395.395 647.79L385.968 647.724L383.978 657.804H377.356L387.37 611.028Z" fill="white"/>
<path d="M400.255 611.028H420.283V617.715H413.597V657.804H406.943V617.715H400.255V611.028Z" fill="white"/>
<path d="M430.167 657.804H423.48V611.028H430.167V657.804Z" fill="white"/>
<path d="M448.761 618.693C448.109 618.041 447.314 617.715 446.379 617.715C445.445 617.715 444.657 618.041 444.014 618.693C443.373 619.345 443.053 620.14 443.053 621.075V630.533V638.363V647.789C443.053 648.725 443.373 649.513 444.014 650.155C444.657 650.796 445.445 651.117 446.379 651.117C447.314 651.117 448.109 650.796 448.761 650.155C449.413 649.513 449.739 648.725 449.739 647.789V638.363V630.533V621.075C449.739 620.14 449.413 619.345 448.761 618.693ZM439.301 613.98C441.258 612.012 443.618 611.028 446.379 611.028C449.141 611.028 451.501 612.012 453.458 613.98C455.415 615.948 456.394 618.313 456.394 621.075V647.789C456.394 650.552 455.415 652.911 453.458 654.868C451.501 656.825 449.141 657.804 446.379 657.804C443.618 657.804 441.258 656.825 439.301 654.868C437.343 652.911 436.365 650.552 436.365 647.789V621.075C436.365 618.313 437.343 615.948 439.301 613.98Z" fill="white"/>
<path d="M462.136 611.028H468.822L475.509 634.416V611.028H482.196V657.804H475.509L468.822 634.416V657.804H462.136V611.028Z" fill="white"/>
<path d="M163.149 711.229V679.365H176.815V683.919H167.705V693.03H174.527V697.585H167.705V706.673H176.815V711.229H163.149Z" fill="white"/>
<path d="M183.436 702.118V704.407C183.436 705.043 183.659 705.581 184.103 706.018C184.547 706.455 185.088 706.674 185.726 706.674C186.362 706.674 186.899 706.455 187.336 706.018C187.772 705.581 187.992 705.043 187.992 704.407V699.851C187.992 699.215 187.772 698.678 187.336 698.241C186.899 697.803 186.362 697.585 185.726 697.585C183.682 697.57 181.978 696.807 180.615 695.297C179.459 693.993 178.88 692.474 178.88 690.741V686.207C178.88 684.327 179.551 682.715 180.892 681.375C182.232 680.035 183.844 679.365 185.726 679.365C187.606 679.365 189.214 680.035 190.547 681.375C191.88 682.715 192.547 684.327 192.547 686.207V688.475H192.126H187.992V686.207C187.992 685.571 187.772 685.03 187.336 684.586C186.899 684.142 186.362 683.919 185.726 683.919C185.088 683.919 184.547 684.142 184.103 684.586C183.659 685.03 183.436 685.571 183.436 686.207V690.741C183.436 691.378 183.659 691.919 184.103 692.363C184.547 692.807 185.088 693.03 185.726 693.03C187.755 693.03 189.451 693.785 190.814 695.297C191.97 696.599 192.547 698.118 192.547 699.851V704.407C192.547 706.289 191.88 707.895 190.547 709.229C189.214 710.562 187.606 711.229 185.726 711.229C183.844 711.229 182.232 710.562 180.892 709.229C179.551 707.895 178.88 706.289 178.88 704.407V702.118H183.436Z" fill="white"/>
<path d="M193.681 679.364H207.325V683.92H202.769V711.228H198.237V683.92H193.681V679.364Z" fill="white"/>
<path d="M204.924 706.673H209.48V711.229H204.924V706.673Z" fill="white"/>
<path d="M226.767 679.364H231.323V711.228H226.767V683.92L222.234 688.475V683.92L226.767 679.364Z" fill="white"/>
<path d="M243.3 694.641C243.744 695.078 244.285 695.297 244.921 695.297C245.558 695.297 246.096 695.078 246.533 694.641C246.969 694.203 247.189 693.667 247.189 693.03V686.207C247.189 685.571 246.969 685.03 246.533 684.586C246.096 684.141 245.558 683.919 244.921 683.919C244.285 683.919 243.744 684.141 243.3 684.586C242.856 685.03 242.633 685.571 242.633 686.207V693.03C242.633 693.667 242.856 694.203 243.3 694.641ZM249.744 709.229C248.41 710.562 246.802 711.229 244.921 711.229C243.041 711.229 241.433 710.562 240.1 709.229C238.766 707.895 238.1 706.289 238.1 704.407V702.118H242.633V704.407C242.633 705.043 242.856 705.581 243.3 706.018C243.744 706.455 244.285 706.673 244.921 706.673C245.558 706.673 246.096 706.455 246.533 706.018C246.969 705.581 247.189 705.043 247.189 704.407V699.451C246.462 699.718 245.706 699.851 244.921 699.851C243.041 699.851 241.433 699.185 240.1 697.851C238.766 696.518 238.1 694.911 238.1 693.03V686.207C238.1 684.327 238.766 682.715 240.1 681.375C241.433 680.034 243.041 679.363 244.921 679.363C246.802 679.363 248.41 680.034 249.744 681.375C251.077 682.715 251.744 684.327 251.744 686.207V693.03V704.407C251.744 706.289 251.077 707.895 249.744 709.229Z" fill="white"/>
<path d="M260.032 694.641C260.476 695.078 261.017 695.297 261.653 695.297C262.291 695.297 262.828 695.078 263.265 694.641C263.701 694.203 263.921 693.667 263.921 693.03V686.207C263.921 685.571 263.701 685.03 263.265 684.586C262.828 684.141 262.291 683.919 261.653 683.919C261.017 683.919 260.476 684.141 260.032 684.586C259.588 685.03 259.365 685.571 259.365 686.207V693.03C259.365 693.667 259.588 694.203 260.032 694.641ZM266.476 709.229C265.143 710.562 263.535 711.229 261.653 711.229C259.773 711.229 258.165 710.562 256.832 709.229C255.499 707.895 254.832 706.289 254.832 704.407V702.118H259.365V704.407C259.365 705.043 259.588 705.581 260.032 706.018C260.476 706.455 261.017 706.673 261.653 706.673C262.291 706.673 262.828 706.455 263.265 706.018C263.701 705.581 263.921 705.043 263.921 704.407V699.451C263.195 699.718 262.439 699.851 261.653 699.851C259.773 699.851 258.165 699.185 256.832 697.851C255.499 696.518 254.832 694.911 254.832 693.03V686.207C254.832 684.327 255.499 682.715 256.832 681.375C258.165 680.034 259.773 679.363 261.653 679.363C263.535 679.363 265.143 680.034 266.476 681.375C267.809 682.715 268.476 684.327 268.476 686.207V693.03V704.407C268.476 706.289 267.809 707.895 266.476 709.229Z" fill="white"/>
<path d="M273.565 681.375C274.898 680.035 276.506 679.364 278.386 679.364C280.267 679.364 281.875 680.035 283.209 681.375C284.542 682.715 285.209 684.327 285.209 686.208C285.209 687.215 285.009 688.156 284.609 689.03L276.653 706.674H285.209V711.228H271.565V706.674L280.121 687.963C280.49 687.09 280.667 686.504 280.653 686.208C280.653 685.571 280.434 685.03 279.998 684.586C279.561 684.142 279.023 683.919 278.386 683.919C277.75 683.919 277.209 684.142 276.765 684.586C276.319 685.03 276.098 685.571 276.098 686.208H271.565C271.565 684.327 272.231 682.715 273.565 681.375Z" fill="white"/>
<path d="M301.007 702.118V704.407C301.007 705.043 301.229 705.581 301.673 706.018C302.117 706.455 302.659 706.674 303.296 706.674C303.932 706.674 304.469 706.455 304.907 706.018C305.343 705.581 305.563 705.043 305.563 704.407V699.851C305.563 699.215 305.343 698.678 304.907 698.241C304.469 697.803 303.932 697.585 303.296 697.585C301.252 697.57 299.548 696.807 298.185 695.297C297.029 693.993 296.451 692.474 296.451 690.741V686.207C296.451 684.327 297.121 682.715 298.463 681.375C299.803 680.035 301.415 679.365 303.296 679.365C305.176 679.365 306.784 680.035 308.117 681.375C309.451 682.715 310.117 684.327 310.117 686.207V688.475H309.696H305.563V686.207C305.563 685.571 305.343 685.03 304.907 684.586C304.469 684.142 303.932 683.919 303.296 683.919C302.659 683.919 302.117 684.142 301.673 684.586C301.229 685.03 301.007 685.571 301.007 686.207V690.741C301.007 691.378 301.229 691.919 301.673 692.363C302.117 692.807 302.659 693.03 303.296 693.03C305.325 693.03 307.021 693.785 308.384 695.297C309.54 696.599 310.117 698.118 310.117 699.851V704.407C310.117 706.289 309.451 707.895 308.117 709.229C306.784 710.562 305.176 711.229 303.296 711.229C301.415 711.229 299.803 710.562 298.463 709.229C297.121 707.895 296.451 706.289 296.451 704.407V702.118H301.007Z" fill="white"/>
<path d="M311.518 679.364H316.118L319.539 692.985L322.895 679.364H327.494L321.806 702.163V711.273H317.206V702.163L311.518 679.364Z" fill="white"/>
<path d="M334.449 683.919V693.118H337.316C337.805 693.118 338.216 692.945 338.549 692.597C338.883 692.249 339.049 691.845 339.049 691.386V685.697C339.049 685.207 338.883 684.79 338.549 684.442C338.216 684.093 337.805 683.919 337.316 683.919H334.449ZM329.939 679.409L339.049 679.453C340.293 679.453 341.356 679.894 342.237 680.775C343.119 681.657 343.56 682.719 343.56 683.963V693.074C343.56 694.807 342.812 696.111 341.316 696.985L343.56 711.229H339.049L336.783 697.585H334.449V711.229H329.939V679.409Z" fill="white"/>
<path d="M354.426 688.475L352.138 699.896H356.737L354.47 688.475H354.426ZM352.182 679.364H356.693L363.514 711.228H359.005L357.649 704.407L351.226 704.363L349.87 711.228H345.361L352.182 679.364Z" fill="white"/>
<path d="M367.515 681.375C368.848 680.035 370.455 679.364 372.336 679.364C374.217 679.364 375.824 680.035 377.157 681.375C378.491 682.715 379.157 684.327 379.157 686.208V688.475H374.625V686.208C374.625 685.571 374.403 685.03 373.959 684.586C373.515 684.142 372.973 683.919 372.336 683.919C371.7 683.919 371.161 684.142 370.725 684.586C370.288 685.03 370.069 685.571 370.069 686.208V704.407C370.069 705.043 370.288 705.58 370.725 706.018C371.161 706.455 371.7 706.674 372.336 706.674C372.973 706.674 373.515 706.455 373.959 706.018C374.403 705.58 374.625 705.043 374.625 704.407V702.118H379.157V704.407C379.157 706.288 378.491 707.895 377.157 709.228C375.824 710.562 374.217 711.228 372.336 711.228C370.455 711.228 368.848 710.562 367.515 709.228C366.181 707.895 365.515 706.288 365.515 704.407V686.208C365.515 684.327 366.181 682.715 367.515 681.375Z" fill="white"/>
<path d="M382.692 679.364H387.246V704.407C387.246 705.044 387.465 705.581 387.902 706.017C388.338 706.455 388.88 706.673 389.524 706.673C390.168 706.673 390.709 706.455 391.146 706.017C391.584 705.581 391.802 705.044 391.802 704.407V679.364H396.357V704.407C396.357 706.288 395.686 707.895 394.346 709.228C393.005 710.561 391.397 711.228 389.524 711.228C387.65 711.228 386.044 710.561 384.702 709.228C383.361 707.895 382.692 706.288 382.692 704.407V679.364Z" fill="white"/>
<path d="M404.356 702.118V704.407C404.356 705.043 404.578 705.581 405.022 706.018C405.468 706.455 406.008 706.674 406.645 706.674C407.281 706.674 407.82 706.455 408.256 706.018C408.693 705.581 408.912 705.043 408.912 704.407V699.851C408.912 699.215 408.693 698.678 408.256 698.241C407.82 697.803 407.281 697.585 406.645 697.585C404.601 697.57 402.897 696.807 401.534 695.297C400.38 693.993 399.801 692.474 399.801 690.741V686.207C399.801 684.327 400.472 682.715 401.812 681.375C403.153 680.035 404.764 679.365 406.645 679.365C408.526 679.365 410.133 680.035 411.466 681.375C412.8 682.715 413.466 684.327 413.466 686.207V688.475H413.045H408.912V686.207C408.912 685.571 408.693 685.03 408.256 684.586C407.82 684.142 407.281 683.919 406.645 683.919C406.008 683.919 405.468 684.142 405.022 684.586C404.578 685.03 404.356 685.571 404.356 686.207V690.741C404.356 691.378 404.578 691.919 405.022 692.363C405.468 692.807 406.008 693.03 406.645 693.03C408.674 693.03 410.37 693.785 411.733 695.297C412.889 696.599 413.466 698.118 413.466 699.851V704.407C413.466 706.289 412.8 707.895 411.466 709.229C410.133 710.562 408.526 711.229 406.645 711.229C404.764 711.229 403.153 710.562 401.812 709.229C400.472 707.895 399.801 706.289 399.801 704.407V702.118H404.356Z" fill="white"/>
<path d="M416.912 711.229V679.365H430.577V683.919H421.466V693.03H428.288V697.585H421.466V706.673H430.577V711.229H416.912Z" fill="white"/>
<path d="M433.288 706.673H437.843V711.229L433.288 715.784V706.673Z" fill="white"/>
<path d="M450.176 679.364H454.731L459.287 695.296V679.364H463.841V711.228H459.287L454.731 695.296V711.228H450.176V679.364Z" fill="white"/>
<path d="M465.952 679.364H470.552L473.975 692.985L477.329 679.364H481.929L476.241 702.163V711.273H471.641V702.163L465.952 679.364Z" fill="white"/>
<path d="M716.397 562.552V565.912C716.397 566.846 716.723 567.636 717.375 568.276C718.027 568.917 718.821 569.238 719.757 569.238C720.691 569.238 721.481 568.917 722.121 568.276C722.762 567.636 723.083 566.846 723.083 565.912V559.224C723.083 558.289 722.762 557.501 722.121 556.86C721.481 556.218 720.691 555.897 719.757 555.897C716.755 555.876 714.255 554.756 712.254 552.537C710.558 550.624 709.71 548.394 709.71 545.85V539.196C709.71 536.434 710.694 534.069 712.662 532.101C714.63 530.133 716.994 529.149 719.757 529.149C722.518 529.149 724.878 530.133 726.835 532.101C728.791 534.069 729.771 536.434 729.771 539.196V542.524H729.151H723.083V539.196C723.083 538.261 722.762 537.468 722.121 536.814C721.481 536.162 720.691 535.836 719.757 535.836C718.821 535.836 718.027 536.162 717.375 536.814C716.723 537.468 716.397 538.261 716.397 539.196V545.85C716.397 546.785 716.723 547.58 717.375 548.232C718.027 548.884 718.821 549.21 719.757 549.21C722.735 549.21 725.226 550.32 727.226 552.537C728.923 554.45 729.771 556.68 729.771 559.224V565.912C729.771 568.673 728.791 571.032 726.835 572.99C724.878 574.946 722.518 575.925 719.757 575.925C716.994 575.925 714.63 574.946 712.662 572.99C710.694 571.032 709.71 568.673 709.71 565.912V562.552H716.397Z" fill="white"/>
<path d="M745.069 542.523L741.709 559.29H748.461L745.134 542.523H745.069ZM741.774 529.15H748.396L758.41 575.926H751.789L749.798 565.911L740.372 565.846L738.381 575.926H731.76L741.774 529.15Z" fill="white"/>
<path d="M768.36 535.771V569.303H772.568C773.285 569.303 773.889 569.059 774.378 568.57C774.868 568.08 775.112 567.476 775.112 566.759V538.315C775.112 537.598 774.868 536.994 774.378 536.504C773.889 536.015 773.285 535.771 772.568 535.771H768.36ZM761.738 529.15H775.112C776.938 529.15 778.498 529.796 779.793 531.09C781.086 532.383 781.734 533.966 781.734 535.836V569.303C781.734 571.131 781.086 572.691 779.793 573.984C778.498 575.279 776.938 575.926 775.112 575.926H761.738V529.15Z" fill="white"/>
<path d="M803.034 532.101C804.991 530.133 807.35 529.149 810.113 529.149C812.874 529.149 815.234 530.133 817.191 532.101C819.147 534.069 820.126 536.434 820.126 539.196H813.473C813.473 538.261 813.146 537.466 812.494 536.814C811.841 536.162 811.047 535.836 810.113 535.836C809.177 535.836 808.389 536.162 807.747 536.814C807.106 537.466 806.785 538.261 806.785 539.196V565.91C806.785 566.846 807.106 567.634 807.747 568.276C808.389 568.917 809.177 569.238 810.113 569.238C811.047 569.238 811.841 568.917 812.494 568.276C813.146 567.634 813.473 566.846 813.473 565.91V555.897H810.113V549.21H820.126V565.91C820.126 568.673 819.147 571.032 817.191 572.99C815.234 574.946 812.874 575.925 810.113 575.925C807.35 575.925 804.991 574.946 803.034 572.99C801.077 571.032 800.098 568.673 800.098 565.91V539.196C800.098 536.434 801.077 534.069 803.034 532.101Z" fill="white"/>
<path d="M836.371 542.523L833.011 559.29H839.763L836.436 542.523H836.371ZM833.076 529.15H839.698L849.712 575.926H843.091L841.1 565.911L831.674 565.846L829.683 575.926H823.062L833.076 529.15Z" fill="white"/>
<path d="M858.389 562.552V565.912C858.389 566.846 858.715 567.636 859.367 568.276C860.019 568.917 860.813 569.238 861.749 569.238C862.683 569.238 863.473 568.917 864.113 568.276C864.754 567.636 865.075 566.846 865.075 565.912V559.224C865.075 558.289 864.754 557.501 864.113 556.86C863.473 556.218 862.683 555.897 861.749 555.897C858.747 555.876 856.247 554.756 854.246 552.537C852.55 550.624 851.702 548.394 851.702 545.85V539.196C851.702 536.434 852.686 534.069 854.654 532.101C856.622 530.133 858.986 529.149 861.749 529.149C864.51 529.149 866.87 530.133 868.827 532.101C870.783 534.069 871.763 536.434 871.763 539.196V542.524H871.143H865.075V539.196C865.075 538.261 864.754 537.468 864.113 536.814C863.473 536.162 862.683 535.836 861.749 535.836C860.813 535.836 860.019 536.162 859.367 536.814C858.715 537.468 858.389 538.261 858.389 539.196V545.85C858.389 546.785 858.715 547.58 859.367 548.232C860.019 548.884 860.813 549.21 861.749 549.21C864.727 549.21 867.218 550.32 869.218 552.537C870.915 554.45 871.763 556.68 871.763 559.224V565.912C871.763 568.673 870.783 571.032 868.827 572.99C866.87 574.946 864.51 575.925 861.749 575.925C858.986 575.925 856.622 574.946 854.654 572.99C852.686 571.032 851.702 568.673 851.702 565.912V562.552H858.389Z" fill="white"/>
<path d="M894.564 562.552V565.912C894.564 566.846 894.891 567.636 895.543 568.276C896.195 568.917 896.988 569.238 897.924 569.238C898.859 569.238 899.648 568.917 900.288 568.276C900.931 567.636 901.251 566.846 901.251 565.912V559.224C901.251 558.289 900.931 557.501 900.288 556.86C899.648 556.218 898.859 555.897 897.924 555.897C894.923 555.876 892.423 554.756 890.421 552.537C888.725 550.624 887.877 548.394 887.877 545.85V539.196C887.877 536.434 888.861 534.069 890.829 532.101C892.797 530.133 895.161 529.149 897.924 529.149C900.685 529.149 903.045 530.133 905.003 532.101C906.959 534.069 907.939 536.434 907.939 539.196V542.524H907.319H901.251V539.196C901.251 538.261 900.931 537.468 900.288 536.814C899.648 536.162 898.859 535.836 897.924 535.836C896.988 535.836 896.195 536.162 895.543 536.814C894.891 537.468 894.564 538.261 894.564 539.196V545.85C894.564 546.785 894.891 547.58 895.543 548.232C896.195 548.884 896.988 549.21 897.924 549.21C900.903 549.21 903.393 550.32 905.395 552.537C907.091 554.45 907.939 556.68 907.939 559.224V565.912C907.939 568.673 906.959 571.032 905.003 572.99C903.045 574.946 900.685 575.925 897.924 575.925C895.161 575.925 892.797 574.946 890.829 572.99C888.861 571.032 887.877 568.673 887.877 565.912V562.552H894.564Z" fill="white"/>
<path d="M909.602 529.149H929.63V535.836H922.944V575.925H916.29V535.836H909.602V529.149Z" fill="white"/>
<path d="M939.188 542.523L935.827 559.29H942.58L939.254 542.523H939.188ZM935.892 529.15H942.515L952.53 575.926H945.907L943.918 565.911L934.491 565.846L932.5 575.926H925.879L935.892 529.15Z" fill="white"/>
<path d="M948.778 529.149H968.806V535.836H962.119V575.925H955.466V535.836H948.778V529.149Z" fill="white"/>
<path d="M978.689 575.925H972.003V529.149H978.689V575.925Z" fill="white"/>
<path d="M997.283 536.815C996.631 536.163 995.837 535.836 994.902 535.836C993.967 535.836 993.179 536.163 992.537 536.815C991.895 537.467 991.575 538.261 991.575 539.196V548.655V556.484V565.911C991.575 566.847 991.895 567.635 992.537 568.276C993.179 568.917 993.967 569.239 994.902 569.239C995.837 569.239 996.631 568.917 997.283 568.276C997.935 567.635 998.262 566.847 998.262 565.911V556.484V548.655V539.196C998.262 538.261 997.935 537.467 997.283 536.815ZM987.823 532.101C989.781 530.133 992.141 529.149 994.902 529.149C997.663 529.149 1000.02 530.133 1001.98 532.101C1003.94 534.069 1004.92 536.435 1004.92 539.196V565.911C1004.92 568.673 1003.94 571.032 1001.98 572.989C1000.02 574.947 997.663 575.925 994.902 575.925C992.141 575.925 989.781 574.947 987.823 572.989C985.866 571.032 984.887 568.673 984.887 565.911V539.196C984.887 536.435 985.866 534.069 987.823 532.101Z" fill="white"/>
<path d="M1010.66 529.149H1017.35L1024.03 552.537V529.149H1030.72V575.925H1024.03L1017.35 552.537V575.925H1010.66V529.149Z" fill="white"/>
<path d="M711.672 629.35V597.486H725.339V602.04H716.228V611.151H723.049V615.706H716.228V624.794H725.339V629.35H711.672Z" fill="white"/>
<path d="M731.959 620.239V622.528C731.959 623.164 732.182 623.702 732.626 624.139C733.07 624.576 733.611 624.795 734.249 624.795C734.885 624.795 735.422 624.576 735.859 624.139C736.295 623.702 736.515 623.164 736.515 622.528V617.972C736.515 617.336 736.295 616.799 735.859 616.362C735.422 615.924 734.885 615.706 734.249 615.706C732.205 615.691 730.501 614.928 729.138 613.418C727.982 612.114 727.403 610.595 727.403 608.862V604.328C727.403 602.448 728.074 600.836 729.415 599.496C730.755 598.156 732.367 597.486 734.249 597.486C736.129 597.486 737.737 598.156 739.07 599.496C740.403 600.836 741.07 602.448 741.07 604.328V606.596H740.649H736.515V604.328C736.515 603.692 736.295 603.151 735.859 602.707C735.422 602.263 734.885 602.04 734.249 602.04C733.611 602.04 733.07 602.263 732.626 602.707C732.182 603.151 731.959 603.692 731.959 604.328V608.862C731.959 609.499 732.182 610.04 732.626 610.484C733.07 610.928 733.611 611.151 734.249 611.151C736.278 611.151 737.974 611.906 739.337 613.418C740.493 614.72 741.07 616.239 741.07 617.972V622.528C741.07 624.41 740.403 626.016 739.07 627.35C737.737 628.683 736.129 629.35 734.249 629.35C732.367 629.35 730.755 628.683 729.415 627.35C728.074 626.016 727.403 624.41 727.403 622.528V620.239H731.959Z" fill="white"/>
<path d="M742.203 597.485H755.847V602.041H751.291V629.349H746.759V602.041H742.203V597.485Z" fill="white"/>
<path d="M753.447 624.795H758.003V629.351H753.447V624.795Z" fill="white"/>
<path d="M775.29 597.485H779.846V629.349H775.29V602.041L770.756 606.596V602.041L775.29 597.485Z" fill="white"/>
<path d="M791.822 612.762C792.266 613.199 792.808 613.418 793.444 613.418C794.081 613.418 794.618 613.199 795.056 612.762C795.492 612.325 795.712 611.789 795.712 611.151V604.329C795.712 603.693 795.492 603.151 795.056 602.707C794.618 602.262 794.081 602.041 793.444 602.041C792.808 602.041 792.266 602.262 791.822 602.707C791.378 603.151 791.156 603.693 791.156 604.329V611.151C791.156 611.789 791.378 612.325 791.822 612.762ZM798.266 627.35C796.933 628.683 795.325 629.35 793.444 629.35C791.564 629.35 789.956 628.683 788.622 627.35C787.289 626.017 786.622 624.41 786.622 622.529V620.239H791.156V622.529C791.156 623.165 791.378 623.702 791.822 624.139C792.266 624.577 792.808 624.794 793.444 624.794C794.081 624.794 794.618 624.577 795.056 624.139C795.492 623.702 795.712 623.165 795.712 622.529V617.573C794.985 617.839 794.229 617.973 793.444 617.973C791.564 617.973 789.956 617.306 788.622 615.973C787.289 614.639 786.622 613.033 786.622 611.151V604.329C786.622 602.449 787.289 600.837 788.622 599.497C789.956 598.155 791.564 597.485 793.444 597.485C795.325 597.485 796.933 598.155 798.266 599.497C799.6 600.837 800.266 602.449 800.266 604.329V611.151V622.529C800.266 624.41 799.6 626.017 798.266 627.35Z" fill="white"/>
<path d="M808.555 612.762C808.999 613.199 809.54 613.418 810.176 613.418C810.813 613.418 811.351 613.199 811.788 612.762C812.224 612.325 812.444 611.789 812.444 611.151V604.329C812.444 603.693 812.224 603.151 811.788 602.707C811.351 602.262 810.813 602.041 810.176 602.041C809.54 602.041 808.999 602.262 808.555 602.707C808.111 603.151 807.888 603.693 807.888 604.329V611.151C807.888 611.789 808.111 612.325 808.555 612.762ZM814.999 627.35C813.665 628.683 812.057 629.35 810.176 629.35C808.296 629.35 806.688 628.683 805.355 627.35C804.021 626.017 803.355 624.41 803.355 622.529V620.239H807.888V622.529C807.888 623.165 808.111 623.702 808.555 624.139C808.999 624.577 809.54 624.794 810.176 624.794C810.813 624.794 811.351 624.577 811.788 624.139C812.224 623.702 812.444 623.165 812.444 622.529V617.573C811.717 617.839 810.961 617.973 810.176 617.973C808.296 617.973 806.688 617.306 805.355 615.973C804.021 614.639 803.355 613.033 803.355 611.151V604.329C803.355 602.449 804.021 600.837 805.355 599.497C806.688 598.155 808.296 597.485 810.176 597.485C812.057 597.485 813.665 598.155 814.999 599.497C816.332 600.837 816.999 602.449 816.999 604.329V611.151V622.529C816.999 624.41 816.332 626.017 814.999 627.35Z" fill="white"/>
<path d="M822.087 599.496C823.421 598.156 825.029 597.486 826.909 597.486C828.79 597.486 830.398 598.156 831.731 599.496C833.065 600.836 833.731 602.448 833.731 604.33C833.731 605.336 833.531 606.278 833.131 607.151L825.175 624.795H833.731V629.35H820.087V624.795L828.643 606.084C829.013 605.211 829.19 604.626 829.175 604.33C829.175 603.692 828.957 603.151 828.521 602.707C828.083 602.263 827.546 602.04 826.909 602.04C826.273 602.04 825.731 602.263 825.287 602.707C824.842 603.151 824.621 603.692 824.621 604.33H820.087C820.087 602.448 820.754 600.836 822.087 599.496Z" fill="white"/>
<path d="M849.529 620.239V622.528C849.529 623.164 849.752 623.702 850.196 624.139C850.64 624.576 851.181 624.795 851.819 624.795C852.455 624.795 852.992 624.576 853.429 624.139C853.865 623.702 854.085 623.164 854.085 622.528V617.972C854.085 617.336 853.865 616.799 853.429 616.362C852.992 615.924 852.455 615.706 851.819 615.706C849.775 615.691 848.071 614.928 846.708 613.418C845.552 612.114 844.973 610.595 844.973 608.862V604.328C844.973 602.448 845.644 600.836 846.985 599.496C848.325 598.156 849.937 597.486 851.819 597.486C853.699 597.486 855.307 598.156 856.64 599.496C857.973 600.836 858.64 602.448 858.64 604.328V606.596H858.219H854.085V604.328C854.085 603.692 853.865 603.151 853.429 602.707C852.992 602.263 852.455 602.04 851.819 602.04C851.181 602.04 850.64 602.263 850.196 602.707C849.752 603.151 849.529 603.692 849.529 604.328V608.862C849.529 609.499 849.752 610.04 850.196 610.484C850.64 610.928 851.181 611.151 851.819 611.151C853.848 611.151 855.544 611.906 856.907 613.418C858.063 614.72 858.64 616.239 858.64 617.972V622.528C858.64 624.41 857.973 626.016 856.64 627.35C855.307 628.683 853.699 629.35 851.819 629.35C849.937 629.35 848.325 628.683 846.985 627.35C845.644 626.016 844.973 624.41 844.973 622.528V620.239H849.529Z" fill="white"/>
<path d="M860.041 597.485H864.641L868.062 611.107L871.418 597.485H876.017L870.329 620.284V629.395H865.729V620.284L860.041 597.485Z" fill="white"/>
<path d="M882.972 602.041V611.239H885.839C886.328 611.239 886.739 611.066 887.072 610.718C887.405 610.37 887.572 609.966 887.572 609.507V603.818C887.572 603.329 887.405 602.911 887.072 602.563C886.739 602.214 886.328 602.041 885.839 602.041H882.972ZM878.461 597.53L887.572 597.574C888.816 597.574 889.879 598.015 890.76 598.897C891.641 599.778 892.083 600.841 892.083 602.085V611.195C892.083 612.929 891.335 614.233 889.839 615.106L892.083 629.35H887.572L885.305 615.706H882.972V629.35H878.461V597.53Z" fill="white"/>
<path d="M902.949 606.596L900.661 618.017H905.259L902.993 606.596H902.949ZM900.705 597.485H905.215L912.037 629.349H907.527L906.171 622.528L899.749 622.484L898.393 629.349H893.883L900.705 597.485Z" fill="white"/>
<path d="M916.037 599.496C917.371 598.156 918.977 597.486 920.859 597.486C922.74 597.486 924.347 598.156 925.68 599.496C927.013 600.836 927.68 602.448 927.68 604.33V606.596H923.148V604.33C923.148 603.692 922.925 603.151 922.481 602.707C922.037 602.263 921.496 602.04 920.859 602.04C920.223 602.04 919.684 602.263 919.248 602.707C918.811 603.151 918.592 603.692 918.592 604.33V622.528C918.592 623.164 918.811 623.702 919.248 624.139C919.684 624.576 920.223 624.795 920.859 624.795C921.496 624.795 922.037 624.576 922.481 624.139C922.925 623.702 923.148 623.164 923.148 622.528V620.239H927.68V622.528C927.68 624.41 927.013 626.016 925.68 627.35C924.347 628.683 922.74 629.35 920.859 629.35C918.977 629.35 917.371 628.683 916.037 627.35C914.704 626.016 914.037 624.41 914.037 622.528V604.33C914.037 602.448 914.704 600.836 916.037 599.496Z" fill="white"/>
<path d="M931.214 597.485H935.769V622.528C935.769 623.165 935.988 623.703 936.425 624.139C936.861 624.576 937.402 624.795 938.046 624.795C938.69 624.795 939.232 624.576 939.669 624.139C940.106 623.703 940.325 623.165 940.325 622.528V597.485H944.88V622.528C944.88 624.409 944.209 626.016 942.869 627.349C941.528 628.683 939.92 629.349 938.046 629.349C936.173 629.349 934.566 628.683 933.225 627.349C931.884 626.016 931.214 624.409 931.214 622.528V597.485Z" fill="white"/>
<path d="M952.878 620.239V622.528C952.878 623.164 953.101 623.702 953.545 624.139C953.99 624.576 954.53 624.795 955.168 624.795C955.804 624.795 956.342 624.576 956.778 624.139C957.216 623.702 957.434 623.164 957.434 622.528V617.972C957.434 617.336 957.216 616.799 956.778 616.362C956.342 615.924 955.804 615.706 955.168 615.706C953.124 615.691 951.42 614.928 950.057 613.418C948.902 612.114 948.324 610.595 948.324 608.862V604.328C948.324 602.448 948.994 600.836 950.334 599.496C951.676 598.156 953.286 597.486 955.168 597.486C957.049 597.486 958.656 598.156 959.989 599.496C961.322 600.836 961.989 602.448 961.989 604.328V606.596H961.568H957.434V604.328C957.434 603.692 957.216 603.151 956.778 602.707C956.342 602.263 955.804 602.04 955.168 602.04C954.53 602.04 953.99 602.263 953.545 602.707C953.101 603.151 952.878 603.692 952.878 604.328V608.862C952.878 609.499 953.101 610.04 953.545 610.484C953.99 610.928 954.53 611.151 955.168 611.151C957.197 611.151 958.893 611.906 960.256 613.418C961.412 614.72 961.989 616.239 961.989 617.972V622.528C961.989 624.41 961.322 626.016 959.989 627.35C958.656 628.683 957.049 629.35 955.168 629.35C953.286 629.35 951.676 628.683 950.334 627.35C948.994 626.016 948.324 624.41 948.324 622.528V620.239H952.878Z" fill="white"/>
<path d="M965.434 629.35V597.486H979.1V602.04H969.989V611.151H976.81V615.706H969.989V624.794H979.1V629.35H965.434Z" fill="white"/>
<path d="M981.811 624.794H986.365V629.35L981.811 633.905V624.794Z" fill="white"/>
<path d="M998.699 597.485H1003.25L1007.81 613.417V597.485H1012.36V629.349H1007.81L1003.25 613.417V629.349H998.699V597.485Z" fill="white"/>
<path d="M1014.47 597.485H1019.07L1022.5 611.107L1025.85 597.485H1030.45L1024.76 620.284V629.395H1020.16V620.284L1014.47 597.485Z" fill="white"/>
</g>
</g>
<defs>
<clipPath id="clip0_7_990">
<rect width="1666.2" height="1122.52" fill="white"/>
</clipPath>
</defs>
</svg>
